<?xml version="1.0" encoding="utf-8"?>
<!-- Generator: Adobe Illustrator 23.0.1, SVG Export Plug-In . SVG Version: 6.00 Build 0)  -->
<svg version="1.1" id="레이어_1" xmlns="http://www.w3.org/2000/svg" xmlns:xlink="http://www.w3.org/1999/xlink" x="0px"
	 y="0px" viewBox="0 0 100 100" style="enable-background:new 0 0 100 100;" xml:space="preserve">
<style type="text/css">
	.st0{fill:#9E30F4;}
	.st1{font-family:'AdobeMyungjoStd-Medium-KSCpc-EUC-H';}
	.st2{font-size:4.4225px;}
</style>
<path class="st0" d="M22.39,58.49c-0.56,0.61-1.18,1.18-1.65,1.85c-0.69,0.97-2.02,1.38-3.09,0.85c-0.19-0.09-0.46-0.11-0.66-0.06
	c-0.52,0.13-1.02,0.32-1.59,0.5c0.56,1.27,1.36,2.27,2.31,3.13c1.01,0.93,1.01,1.3-0.21,1.96c-1.2,0.65-2.47,1.06-3.87,0.78
	c-0.21-0.04-0.47-0.09-0.61-0.23c-0.22-0.21-0.5-0.5-0.49-0.75c0-0.24,0.29-0.62,0.52-0.7c0.58-0.18,1.21-0.23,1.82-0.32
	c0.23-0.04,0.46-0.05,0.82-0.1c-0.2-0.25-0.34-0.39-0.44-0.55c-0.54-0.82-1.15-1.6-1.6-2.47c-0.66-1.27-0.47-1.86,0.8-2.55
	c0.61-0.33,1.29-0.54,1.96-0.73c0.45-0.13,0.62-0.33,0.63-0.79c0.01-0.86,0.09-1.72,0.13-2.59c0.01-0.19-0.02-0.38-0.03-0.62
	c-0.5,0.11-0.92,0.24-1.36,0.29c-1.57,0.16-2.8-0.46-3.64-1.77c-1.03-1.62-1.48-3.37-0.92-5.28c0.05-0.17,0.03-0.36,0.03-0.54
	c0.07-1.5,0.65-2.76,1.76-3.77c0.69-0.62,1.47-0.66,2.31-0.36c0.36,0.13,0.73,0.24,1.12,0.37c0.08-0.99-0.07-1.23-0.83-1.58
	c-1.16-0.54-1.93-1.47-2.3-2.66c-0.83-2.68-1.59-5.38-2.37-8.08c-0.18-0.62-0.34-1.24-0.47-1.87c-0.15-0.72,0.08-1.1,0.7-1.24
	c0.54-0.12,0.94,0.17,1.14,0.8c0.66,2.02,1.31,4.05,1.98,6.07c0.26,0.78,0.55,1.02,1,0.87c0.48-0.16,0.59-0.54,0.36-1.33
	c-0.57-1.99-1.15-3.97-1.71-5.96c-0.21-0.74,0.01-1.17,0.65-1.37c0.58-0.18,1.06,0.07,1.26,0.78c0.5,1.72,0.94,3.45,1.42,5.17
	c0.1,0.37,0.2,0.74,0.35,1.09c0.17,0.38,0.42,0.74,0.91,0.57c0.47-0.17,0.41-0.6,0.32-0.98c-0.36-1.4-0.74-2.79-1.11-4.19
	c-0.16-0.6-0.32-1.2-0.47-1.81c-0.15-0.62,0.08-1.12,0.58-1.28c0.58-0.2,1.11,0.04,1.31,0.72c0.41,1.4,0.8,2.82,1.14,4.24
	c0.45,1.87,0.92,3.75,1.23,5.65c0.28,1.71-0.1,3.28-1.59,4.41c-0.16,0.12-0.2,0.43-0.26,0.66c-0.03,0.09,0.02,0.2,0.04,0.3
	c0.22,0.97-0.03,1.21,1.27,0.88c1.26-0.32,2.29,0.07,3.04,1.16c0.42,0.61,0.88,1.2,1.28,1.82c0.22,0.34,0.47,0.43,0.86,0.34
	c0.74-0.17,1.28,0.18,1.3,0.96c0.01,0.53-0.2,1.06-0.32,1.59c-0.07,0-0.15,0-0.22,0.01c-0.16-0.19-0.3-0.41-0.49-0.57
	c-0.13-0.12-0.34-0.25-0.49-0.23c-0.26,0.04-0.5,0.2-0.75,0.31c0.13,0.22,0.22,0.46,0.39,0.65c0.32,0.36,0.66,0.7,1.02,1.01
	c0.38,0.32,0.77,0.24,1.05-0.14c0.83-1.16,1.5-2.37,1.49-3.86c0-0.19,0.19-0.51,0.35-0.54c0.59-0.14,0.79-0.53,0.79-1.05
	c0-0.48,0.19-0.62,0.64-0.64c1.04-0.05,2.08-0.13,3.12-0.22c0.43-0.04,0.67,0.1,0.76,0.55c0.28,1.44,0.55,1.09-0.79,1.9
	c-0.22,0.14-0.46,0.26-0.67,0.41c-0.58,0.42-1.11,0.63-1.91,0.37c-0.55-0.18-1.28,0.14-1.91,0.29c-0.13,0.03-0.21,0.31-0.3,0.49
	c-0.39,0.77-0.7,1.58-1.17,2.3c-0.55,0.84-1.15,0.88-1.9,0.21c-0.43-0.39-0.77-0.87-1.18-1.28c-0.14-0.14-0.34-0.22-0.52-0.32
	c-0.06,0.18-0.16,0.36-0.17,0.54c-0.04,1.86-0.62,2.58-2.46,2.87c-0.5,0.08-0.63,0.28-0.6,0.75c0.06,1.05,0.09,2.11,0.14,3.33
	c0.3-0.24,0.47-0.39,0.64-0.53c0.45-0.36,0.88-0.77,1.37-1.08c0.72-0.44,1.12-0.23,1.13,0.61c0.02,0.88-0.05,1.76-0.08,2.65
	c-0.01,0.35-0.03,0.69-0.06,1.21c0.44-0.37,0.72-0.67,1.05-0.85c0.54-0.3,1.09-0.61,1.68-0.74c0.63-0.14,0.98,0.28,0.93,0.93
	c-0.01,0.2-0.05,0.4-0.13,0.58c-0.69,1.55-1.72,2.81-3.2,3.64c-1.07,0.6-1.94,0.17-2.06-1.07c-0.09-1.02-0.03-2.04-0.04-3.07
	c0-0.19,0-0.39,0-0.58C22.53,58.57,22.46,58.53,22.39,58.49z M14.41,45.42c0.69,0.63,1.48,0.67,2.18,0.94
	c0.83,0.31,1.64,0.26,2.47-0.06c0.54-0.21,1.11-0.35,1.68-0.46c1.21-0.22,2.11,0.28,2.73,1.32c0.44,0.73,0.52,0.75,1.34,0.46
	c0.34-0.12,0.42-0.29,0.21-0.58c-0.54-0.75-1.07-1.5-1.64-2.23c-0.45-0.57-1.07-0.76-1.78-0.66c-0.46,0.07-0.91,0.16-1.36,0.27
	c-0.38,0.09-0.62,0.02-0.67-0.42c-0.04-0.38-0.11-0.76-0.23-1.12c-0.04-0.13-0.28-0.29-0.4-0.28c-0.71,0.1-1.41,0.25-2.19,0.4
	c0.05,0.29,0.1,0.62,0.17,0.94c0.09,0.42-0.09,0.58-0.49,0.48c-0.45-0.12-0.89-0.26-1.32-0.42c-0.87-0.32-1.57-0.09-2.16,0.59
	c-0.7,0.79-1.09,1.72-1.31,2.74c-0.13,0.59,0.03,1.05,0.62,1.26c1.08,0.38,2.16,0.75,3.26,1.07c0.71,0.2,1.46,0.28,2.19,0.43
	c0.77,0.16,1.28,0.92,1.02,1.43c-0.28-0.33-0.5-0.85-0.85-0.98c-0.81-0.29-1.7-0.38-2.71-0.58c0.23,0.83,0.39,1.51,0.59,2.16
	c0.15,0.49-0.15,0.58-0.49,0.71c-0.4,0.15-0.5-0.08-0.58-0.38c-0.22-0.79-0.44-1.59-0.67-2.38c-0.05-0.18-0.14-0.43-0.29-0.5
	c-0.7-0.31-1.43-0.57-2.22-0.88c-0.38,1.65,0,3.11,0.79,4.48c1.15,1.99,3.38,2.48,5.27,1.15c0.42-0.3,0.82-0.65,1.19-1.02
	c0.5-0.5,1.08-0.71,1.78-0.73c0.64-0.02,1.29-0.08,1.9-0.24c1.08-0.27,1.64-1.17,1.53-2.27c-0.04-0.34-0.17-0.49-0.51-0.39
	c-0.57,0.17-1.16,0.22-1.61,0.73c-0.48,0.54-0.91,0.44-1.24-0.2c-0.32-0.63-0.82-1.02-1.51-1.19c-0.15-0.04-0.29-0.1-0.44-0.15
	c0.13-0.14,0.23-0.19,0.32-0.16c0.47,0.14,0.8-0.02,1.18-0.33c0.28-0.22,0.84-0.35,1.16-0.22c0.62,0.25,1.14,0.05,1.69-0.09
	c0.34-0.08,0.4-0.25,0.25-0.57c-0.48-1.03-1.4-1.56-2.56-1.37c-0.53,0.09-1.06,0.25-1.56,0.46c-0.97,0.41-1.91,0.37-2.87,0.02
	c-0.51-0.18-1.03-0.34-1.56-0.43c-0.58-0.1-0.66,0.44-0.8,0.8c-0.04,0.09,0.24,0.4,0.43,0.48c0.58,0.26,1.19,0.47,1.8,0.7
	c0.65,0.24,1.24,0.17,1.82-0.25c0.32-0.23,0.69-0.41,1.07-0.52c0.36-0.11,0.5,0.03,0.59,0.44c-0.56-0.32-0.94,0.06-1.39,0.27
	c-0.51,0.24-1.11,0.6-1.59,0.51c-1.03-0.21-2.01-0.68-3-1.06c-0.12-0.05-0.29-0.31-0.26-0.38C13.69,46.57,14.05,46.01,14.41,45.42z
	 M21.33,38.5c-0.06-0.5-0.09-1-0.2-1.49c-0.65-2.83-1.33-5.66-2-8.49c-0.08-0.33-0.17-0.69-0.38-0.93
	c-0.16-0.19-0.54-0.34-0.75-0.27c-0.21,0.07-0.37,0.41-0.49,0.66c-0.06,0.12,0.02,0.31,0.06,0.47c0.49,1.86,0.99,3.73,1.48,5.59
	c0.05,0.19,0.11,0.39,0.13,0.59c0.05,0.43-0.07,0.81-0.51,0.99c-0.42,0.17-0.83,0.05-1.07-0.31c-0.22-0.32-0.39-0.7-0.5-1.08
	c-0.47-1.68-0.9-3.37-1.36-5.06c-0.08-0.29-0.12-0.63-0.3-0.84c-0.16-0.19-0.54-0.37-0.74-0.31c-0.24,0.08-0.45,0.41-0.54,0.67
	c-0.07,0.19,0.07,0.47,0.14,0.7c0.55,1.89,1.1,3.78,1.65,5.67c0.26,0.9,0.07,1.4-0.61,1.63c-0.62,0.21-1.03-0.1-1.35-1.01
	c-0.39-1.14-0.76-2.28-1.14-3.43c-0.29-0.9-0.57-1.8-0.85-2.7c-0.13-0.44-0.36-0.75-0.87-0.59c-0.49,0.15-0.46,0.54-0.36,0.94
	c0.01,0.06,0.03,0.12,0.04,0.18c0.66,2.4,1.29,4.81,1.98,7.2c0.29,1,0.6,2.01,1.03,2.95c0.86,1.86,2.54,2.63,4.52,2.17
	C20.23,41.97,21.28,40.55,21.33,38.5z M17.74,59.69c0.05,0.01,0.1,0.03,0.15,0.04c0.03,0.19,0.11,0.38,0.08,0.56
	c-0.09,0.62,0.01,0.75,0.63,0.76c1.11,0.02,2.04-0.72,2.15-2.01c0.15-1.77,0.12-3.56,0.14-5.35c0.01-0.76-0.23-0.92-0.97-0.71
	c-0.17,0.05-0.35,0.12-0.49,0.23c-0.59,0.49-1.17,0.98-1.72,1.5c-0.12,0.11-0.16,0.36-0.17,0.55c-0.07,1.14-0.14,2.29-0.16,3.43
	c-0.01,0.46-0.21,0.59-0.61,0.72c-0.85,0.28-1.7,0.59-2.48,1.01c-0.71,0.38-0.76,0.68-0.45,1.46c0.45,1.13,1.1,2.14,1.99,2.99
	c0.21,0.2,0.4,0.42,0.68,0.71c-0.32,0.1-0.52,0.19-0.73,0.22c-0.68,0.09-1.36,0.12-2.03,0.25c-0.29,0.06-0.55,0.3-0.83,0.46
	c0.27,0.2,0.53,0.42,0.81,0.6c0.11,0.07,0.27,0.05,0.41,0.06c1.3,0.1,2.45-0.35,3.52-1.03c0.5-0.32,0.44-0.43,0.06-0.87
	c-0.82-0.93-1.65-1.85-2.36-2.86c-0.68-0.97-0.61-0.98,0.5-1.34C16.61,60.82,17.61,60.88,17.74,59.69z M22.94,57.52
	c0.06,0.03,0.11,0.05,0.17,0.08c-0.01,0.19-0.04,0.38-0.04,0.56c-0.03,1.34-0.14,2.69-0.07,4.02c0.05,1,0.69,1.29,1.56,0.8
	c1.39-0.79,2.37-1.97,3-3.43c0.11-0.27,0.11-0.77-0.05-0.92c-0.18-0.16-0.7-0.14-0.92,0.01c-0.72,0.49-1.38,1.08-2.06,1.63
	c-0.17,0.13-0.33,0.27-0.49,0.41c-0.11-0.4-0.08-0.71-0.06-1.03c0.08-1.22,0.18-2.44,0.22-3.66c0.02-0.58-0.24-0.71-0.7-0.35
	c-0.67,0.54-1.3,1.13-1.91,1.73c-0.42,0.42-0.31,0.98-0.16,1.58C21.92,58.48,22.43,58,22.94,57.52z M30.33,46.5
	c0.08,0.49,0.16,0.93,0.82,0.88c0.25-0.02,0.51,0.12,0.76,0.14c0.22,0.02,0.49,0.04,0.67-0.06c0.63-0.34,1.25-0.73,1.86-1.11
	c0.55-0.35,0.18-0.8,0.07-1.18c-0.06-0.18-0.39-0.41-0.59-0.4c-0.94,0.03-1.88,0.13-2.81,0.23c-0.15,0.01-0.37,0.08-0.41,0.18
	C30.54,45.62,30.45,46.07,30.33,46.5z M22.26,48.79c0.02,0.68,0.18,0.82,0.7,0.68c1.22-0.33,2.44-0.65,3.64-1.01
	c0.19-0.06,0.47-0.32,0.46-0.45c-0.04-0.33-0.27-0.58-0.68-0.48c-1.26,0.33-2.52,0.65-3.77,0.99
	C22.45,48.56,22.34,48.73,22.26,48.79z M14.53,49.84c-0.06,0.02-0.12,0.03-0.18,0.05c0.25,0.84,0.49,1.69,0.74,2.53
	C15.4,51.93,14.91,50.19,14.53,49.84z M29.32,47.16c0.19,0.19,0.36,0.43,0.43,0.4c0.16-0.07,0.4-0.26,0.39-0.38
	c-0.03-0.19-0.23-0.35-0.36-0.52C29.64,46.81,29.51,46.95,29.32,47.16z"/>
<path class="st0" d="M57.71,51.39c0.69,1.76,1.38,3.53,2.11,5.37c1.34-1.8,2.57-3.44,3.88-5.2c0.11,0.33,0.21,0.54,0.25,0.75
	c0.3,1.88,0.58,3.77,0.88,5.65c0.05,0.3,0,0.48-0.34,0.48c-0.08,0-0.16,0.02-0.24,0.04c-1.02,0.21-1.05,0.13-0.96-0.88
	c0.08-0.95,0.04-1.92,0.04-2.88c0-0.09-0.07-0.17-0.18-0.43c-1.09,1.45-2.11,2.81-3.13,4.17c-0.07,0.01-0.15,0.01-0.22,0.02
	c-0.49-1.15-0.98-2.3-1.47-3.45c-0.06,0-0.12,0.01-0.18,0.01c-0.05,0.17-0.14,0.34-0.15,0.51c-0.05,0.86-0.11,1.72-0.12,2.59
	c-0.01,0.41-0.1,0.62-0.55,0.5c-0.27-0.06-0.55-0.07-0.92-0.12c0.39-2.4,0.77-4.76,1.15-7.11C57.61,51.4,57.66,51.39,57.71,51.39z"
	/>
<path class="st0" d="M51.05,51.52c0.04-0.01,0.17-0.05,0.31-0.07c0.59-0.08,0.66,0.04,0.68,0.64c0.02,0.95,0.13,1.89,0.21,3.02
	c0.6-0.48,1.1-0.8,1.5-1.23c0.47-0.49,0.93-0.57,1.64-0.17c-0.34,0.29-0.65,0.55-0.95,0.83c-0.37,0.34-0.72,0.7-1.07,1.06
	c-0.47,0.48-0.43,0.64,0.06,1.12c0.67,0.66,1.29,1.37,1.92,2.06c0.12,0.13,0.17,0.32,0.25,0.49c-1.12,0.4-1.64-0.33-2.22-0.97
	c-0.34-0.37-0.71-0.72-1.07-1.08c-0.07,0.03-0.15,0.06-0.22,0.09c0,0.71,0,1.42,0,2.14c-1.08-0.06-1.06-0.06-1.06-0.95
	C51.05,56.21,51.05,53.91,51.05,51.52z"/>
<path class="st0" d="M88.12,55.02c0.47-0.39,0.97-0.75,1.39-1.19c0.46-0.48,0.91-0.5,1.46-0.21c-0.43,0.46-0.85,0.9-1.27,1.34
	c-0.31,0.34-0.73,0.64-0.89,1.04c-0.22,0.57,0.46,0.71,0.73,1.04c0.48,0.59,1.01,1.14,1.5,1.72c0.11,0.14,0.17,0.32,0.26,0.5
	c-0.79,0.22-1.34,0.06-1.79-0.56c-0.3-0.42-0.71-0.77-1.09-1.12c-0.13-0.12-0.33-0.17-0.5-0.25c-0.05,0.18-0.15,0.36-0.16,0.55
	c-0.02,0.51-0.01,1.03-0.01,1.54c-1.01-0.01-1-0.02-1.01-0.92c-0.02-2.19-0.05-4.37-0.11-6.56c-0.01-0.5,0.3-0.5,0.62-0.52
	c0.4-0.03,0.49,0.21,0.5,0.57c0.03,0.97,0.1,1.94,0.16,2.91C87.98,54.95,88.05,54.99,88.12,55.02z"/>
<path class="st0" d="M35.97,55.37c0-1,0.02-2.01-0.01-3.01c-0.01-0.45,0.17-0.64,0.6-0.72c1.27-0.22,2.47-0.19,3.56,0.62
	c0.56,0.42,0.8,0.98,0.71,1.62c-0.09,0.66-0.35,1.31-1.1,1.51c-0.65,0.18-1.31,0.33-1.98,0.42c-0.5,0.07-0.77,0.23-0.73,0.78
	c0.04,0.56-0.02,1.13,0.05,1.68c0.07,0.58-0.29,0.5-0.63,0.52c-0.36,0.02-0.54-0.04-0.51-0.49c0.05-0.98,0.02-1.96,0.02-2.95
	C35.96,55.37,35.96,55.37,35.97,55.37z M36.92,52.93c0.07,0.66,0.08,1.19,0.2,1.69c0.04,0.17,0.36,0.41,0.52,0.39
	c0.47-0.06,0.95-0.19,1.39-0.37c0.87-0.36,0.99-1.26,0.26-1.86c-0.61-0.5-1.31-0.44-2-0.26C37.11,52.57,37,52.84,36.92,52.93z"/>
<path class="st0" d="M73.46,51.5c0.94,0.08,1.75,0.26,2.43,0.83c1.03,0.85,0.82,2.58-0.42,3.07c-0.59,0.23-1.23,0.34-1.85,0.43
	c-0.81,0.11-0.89,0.15-0.89,0.95c0,0.52,0,1.04,0.05,1.56c0.03,0.36-0.11,0.48-0.43,0.47c-0.31-0.01-0.69,0.11-0.69-0.41
	c0-2.06-0.01-4.13,0.02-6.19c0-0.17,0.25-0.45,0.44-0.5C72.58,51.58,73.07,51.55,73.46,51.5z M73.77,52.35
	c-0.89,0.07-1.15,0.21-1.13,0.71c0.02,0.46,0.06,0.92,0.11,1.37c0.05,0.48,0.28,0.74,0.81,0.56c0.38-0.13,0.82-0.14,1.14-0.36
	c0.33-0.23,0.73-0.63,0.75-0.97c0.02-0.34-0.35-0.77-0.66-1.02C74.53,52.45,74.12,52.44,73.77,52.35z"/>
<path class="st0" d="M65.99,53.27c0.71-0.24,1.03,0.04,1.24,0.64c0.25,0.74,0.57,1.46,0.89,2.17c0.07,0.16,0.24,0.29,0.37,0.43
	c0.13-0.14,0.3-0.27,0.37-0.43c0.35-0.87,0.7-1.75,1-2.64c0.19-0.56,0.6-0.34,0.94-0.32c0.04,0,0.13,0.45,0.06,0.63
	c-0.84,2.04-1.7,4.07-2.55,6.11c-0.09,0.22-0.2,0.45-0.23,0.68c-0.05,0.41-0.29,0.47-0.63,0.45c-0.69-0.03-0.83-0.22-0.55-0.86
	c0.23-0.53,0.51-1.05,0.72-1.59c0.09-0.22,0.13-0.51,0.06-0.73c-0.49-1.4-1.03-2.78-1.55-4.17C66.07,53.52,66.03,53.41,65.99,53.27z
	"/>
<path class="st0" d="M49.12,54.94c-0.49-0.67-1.19-0.88-1.99-0.84c-0.73,0.04-1.29,0.48-1.57,1.28c-0.36,1.04-0.23,1.89,0.37,2.39
	c0.53,0.45,1.4,0.51,2.09,0.15c0.14-0.07,0.3-0.13,0.42-0.23c0.52-0.45,0.74,0.01,0.98,0.32c0.31,0.41-0.12,0.52-0.34,0.67
	c-0.95,0.66-2.47,0.65-3.46-0.08c-1-0.73-1.36-1.75-1.13-2.97c0.36-1.93,1.91-3.05,3.63-2.51c0.51,0.16,0.93,0.64,1.33,1.04
	C49.69,54.39,49.56,54.62,49.12,54.94z"/>
<path class="st0" d="M84.85,54.97c-0.51-0.7-1.21-0.91-2.02-0.87c-0.7,0.03-1.29,0.49-1.57,1.21c-0.33,0.86-0.39,1.69,0.3,2.41
	c0.46,0.47,1.41,0.57,2.09,0.26c0.15-0.07,0.29-0.14,0.43-0.22c0.52-0.31,0.81-0.25,1.04,0.3c0.05,0.13-0.07,0.41-0.2,0.53
	c-1.1,0.96-2.86,0.55-3.69-0.08c-1.06-0.8-1.17-1.88-0.95-3.08c0.23-1.26,1.02-2.01,2.2-2.38c0.92-0.29,2.21,0.23,2.64,1.09
	c0.1,0.2-0.02,0.51-0.03,0.77C85.01,54.92,84.93,54.94,84.85,54.97z"/>
<path class="st0" d="M42.9,58.98c-1.04-0.21-0.98-0.21-0.95-1.11c0.05-1.41,0.01-2.83,0.01-4.23c1.09-0.15,1.12-0.13,1.09,0.86
	C43.02,55.98,42.96,57.45,42.9,58.98z"/>
<path class="st0" d="M78.57,58.98c-1.03-0.22-0.99-0.21-0.93-1.12c0.1-1.39,0.13-2.78,0.2-4.22c0.74-0.22,0.92-0.11,0.9,0.75
	C78.7,55.9,78.63,57.42,78.57,58.98z"/>
<path class="st0" d="M77.32,51.97c0.37-0.28,0.63-0.59,0.78-0.55c0.24,0.07,0.54,0.35,0.59,0.59c0.07,0.32-0.16,0.68-0.55,0.6
	C77.9,52.57,77.7,52.28,77.32,51.97z"/>
<path class="st0" d="M28,48.02c-0.3-0.52-0.53-0.9-0.78-1.33C27.82,46.83,28.07,47.23,28,48.02z"/>
<path class="st0" d="M28.41,46.36c0.11,0.41,0.22,0.81,0.33,1.22c-0.08,0.02-0.17,0.04-0.25,0.07c-0.11-0.41-0.22-0.81-0.33-1.22
	C28.25,46.41,28.33,46.38,28.41,46.36z"/>
<path class="st0" d="M18.65,49.62c0.68,0.25,1.07,0.69,1.21,1.43C19.43,50.54,19.05,50.1,18.65,49.62z"/>
<path class="st0" d="M18.54,38.66c0.36,0.18,0.85,0.28,1.05,0.57c0.31,0.44,0.05,1.27-0.41,1.62c-0.77,0.59-1.67,0.76-2.61,0.55
	c-0.65-0.15-0.86-0.74-1.02-1.3c-0.03-0.12,0.15-0.35,0.29-0.46c0.78-0.56,1.65-0.89,2.63-0.84C18.5,38.76,18.52,38.71,18.54,38.66z
	 M16.47,40.23c0.79-0.18,1.51-0.34,2.23-0.53c0.11-0.03,0.18-0.22,0.27-0.33c-0.14-0.08-0.3-0.24-0.42-0.22
	c-0.72,0.15-1.44,0.33-2.15,0.53c-0.1,0.03-0.25,0.23-0.23,0.28C16.22,40.07,16.37,40.15,16.47,40.23z"/>
<path class="st0" d="M18,37.06c0.69,0.4,1.31,0.56,1.81-0.35c0,0.71-0.4,0.89-0.88,0.92C18.52,37.66,18.16,37.53,18,37.06z"/>
<path class="st0" d="M16.56,37.22c0.12,0.69-0.22,0.89-0.55,1.02c-0.37,0.14-0.76,0.18-1.05-0.31
	C15.63,38.16,16.16,37.98,16.56,37.22z"/>
<text transform="matrix(0.9555 -0.2948 0.2948 0.9555 22.0646 40.6449)" class="st0 st1 st2">~</text>
</svg>
